<?xml version="1.0" encoding="utf-8"?>
<!-- Generator: Adobe Illustrator 23.0.5, SVG Export Plug-In . SVG Version: 6.00 Build 0)  -->
<svg version="1.1" xmlns="http://www.w3.org/2000/svg" xmlns:xlink="http://www.w3.org/1999/xlink" x="0px" y="0px"
	 viewBox="0 0 3000 3000" style="enable-background:new 0 0 3000 3000;" xml:space="preserve">
<style type="text/css">
	.st0{display:none;}
	.st1{display:inline;fill:#FFFFFF;}
	.st2{fill:#142137;}
	.st3{display:none;fill:#FFFFFF;}
	.st4{fill:#FFFFFF;}
</style>
<g id="Layer_2" class="st0">
	<rect x="3064.85" y="7.07" class="st1" width="2964.88" height="1127.75"/>
</g>
<g id="Layer_5">
	<rect x="3.89" y="3.89" class="st2" width="2992.22" height="2992.22"/>
</g>
<g id="Layer_3">
	<rect x="0" y="0" class="st3" width="3000" height="3000"/>
	<g id="Layer_4">
	</g>
	<g>
		<path class="st4" d="M1700.8,1019.76l30.29,30.29l-13.03,25.41l-32.57-32.57h-133.54l-13.35-27.03h152.43h5.54L1700.8,1019.76z
			 M1521.99,1042.89h-43.97l13.68-27.03h16.61L1521.99,1042.89z M1447.72,1042.89h-133.21l-32.57,32.57l-13.03-25.41l30.29-30.29
			l3.91-3.91h5.86h152.43L1447.72,1042.89z M1261.75,1095.65L1137,1220.4l362.84,363.16L1863,1220.4l-124.75-124.75l12.7-25.41
			l140.7,140.7l9.77,9.45l-9.77,9.44l-382.05,382.38l-9.77,9.44l-9.45-9.44l-382.05-382.38l-9.77-9.44l9.77-9.45l140.38-140.7
			L1261.75,1095.65z"/>
		<polygon class="st4" points="1344.48,1309.97 1487.79,1023.35 1499.84,1029.21 1512.21,1023.35 1655.52,1309.97 1631.1,1322.02 
			1499.84,1059.5 1368.58,1322.02 		"/>
		<polygon class="st4" points="1257.19,1086.86 1499.84,1572.48 1742.81,1086.86 1766.92,1098.91 1512.21,1608.64 1499.84,1602.45 
			1487.79,1608.64 1233.08,1098.91 		"/>
		<path class="st4" d="M533.79,1810.25l62.86,135.49h-19.87l-18.24-40.71l-6.51-14.66l-26.71-58.95h-1.3l-26.71,58.95l-6.51,14.66
			l-18.24,40.71H454l62.86-135.49H533.79z M1025.61,1826.21h52.44v119.53h18.24v-119.53h52.44v-15.96h-123.12V1826.21z
			 M845.82,1888.09l33.22,57.65h-20.19l-31.27-55.37h-55.04v55.37h-17.91v-135.49h74.59c17.26,0,29.31,4.89,37.78,13.68
			c6.51,7.17,10.42,16.28,10.42,26.71C877.41,1868.88,865.04,1882.88,845.82,1888.09 M833.77,1874.41
			c14.66,0,25.73-10.75,25.73-24.1c0-5.86-2.61-11.72-6.51-15.63c-6.51-6.84-14.66-8.47-23.78-8.47h-56.67v48.2H833.77z
			 M1606.34,1882.56h54.72v-15.96h-54.72v-40.39h90.55v-15.96H1588.1v135.49h113.67v-15.96h-95.43V1882.56z M2207.92,1864.97
			c-21.82-1.3-44.3-2.28-44.3-19.54c0-16.94,17.91-23.45,35.18-23.45c25.08,0,42.02,9.77,50.16,16.94l10.75-12.38
			c-10.1-8.47-32.25-19.87-60.26-19.87c-24.1,0-53.74,9.45-53.74,40.39c0,31.27,33.22,33.22,62.21,35.18
			c23.13,1.63,43.97,4.89,43.97,25.08c0,18.24-19.22,26.38-42.34,26.38c-29.96,0-48.85-14.33-60.26-24.75l-11.07,12.38
			c14.66,13.68,36.81,27.69,71,27.69c32.57,0,60.58-12.38,60.58-43.97C2269.81,1868.88,2231.7,1866.6,2207.92,1864.97
			 M2450.57,1929.78v-47.23h54.72v-15.96h-54.72v-40.39h90.55v-15.96h-108.79v135.49H2546v-15.96H2450.57z M1954.2,1888.09
			l33.55,57.65h-20.52l-30.94-55.37h-55.37v55.37H1863v-135.49h74.59c17.26,0,29.31,4.89,37.78,13.68
			c6.84,7.17,10.42,16.28,10.42,26.71C1985.79,1868.88,1973.41,1882.88,1954.2,1888.09 M1942.15,1874.41
			c14.98,0,25.73-10.75,25.73-24.1c0-5.86-2.28-11.72-6.19-15.63c-6.84-6.84-14.66-8.47-24.1-8.47h-56.67v48.2H1942.15z
			 M1360.11,1922.94h-0.98L1308,1810.25h-20.19l62.86,135.49h16.94l62.86-135.49h-19.54L1360.11,1922.94z"/>
	</g>
</g>
</svg>
